<svg width="13" height="17" viewBox="0 0 13 17" fill="none" xmlns="http://www.w3.org/2000/svg">
<path d="M6.16774 14.1637C6.35544 13.9671 6.52601 13.795 6.69049 13.615C7.99454 12.1973 9.16603 10.6852 10.0764 8.98984C10.5707 8.06969 10.9785 7.11474 11.1575 6.08352C11.5299 3.94043 10.879 2.16604 9.06021 0.898616C6.06638 -1.18572 1.82693 0.551343 1.17232 4.09805C0.998698 5.03825 1.11273 5.95563 1.37809 6.86333C1.69483 7.94456 2.19928 8.94328 2.79077 9.90053C3.73115 11.4191 4.85266 12.8006 6.10486 14.0812C6.12738 14.1075 6.14838 14.135 6.16774 14.1637ZM9.3 4.94376C9.30422 6.62897 7.91101 8.01254 6.20293 8.01853C4.46975 8.02498 3.05895 6.66031 3.05191 4.97326C3.04581 3.26455 4.4362 1.87845 6.16117 1.87545C6.57266 1.87357 6.98048 1.95154 7.3612 2.1049C7.74192 2.25825 8.08804 2.48396 8.3797 2.76906C8.67135 3.05416 8.90279 3.39305 9.06072 3.76625C9.21866 4.13945 9.29997 4.53961 9.3 4.94376Z" fill="white"/>
<path d="M8.166 13.2073C8.46303 13.2603 8.74515 13.3052 9.02425 13.3615C9.43347 13.4445 9.83757 13.5472 10.207 13.7334C10.3426 13.8013 10.4668 13.8867 10.5757 13.987C10.7356 14.1359 10.7347 14.3154 10.5669 14.4575C10.439 14.565 10.2941 14.6544 10.1372 14.7226C9.64972 14.9353 9.12365 15.0304 8.59431 15.1032C7.14365 15.3025 5.68833 15.3091 4.23231 15.1634C3.59194 15.0996 2.95576 15.0036 2.3545 14.7805C2.17128 14.7137 1.99897 14.6242 1.84239 14.5145C1.59122 14.3358 1.59611 14.1152 1.83308 13.9204C2.05096 13.7415 2.31656 13.6408 2.58728 13.5521C3.0633 13.3964 3.55632 13.3041 4.05377 13.233C4.07565 13.2298 4.09753 13.226 4.14688 13.2181C4.06843 13.1303 4.00186 13.0552 3.93482 12.9803C3.90526 12.9473 3.86685 12.9188 3.8466 12.8818C3.76 12.7235 3.63454 12.7048 3.45088 12.7384C2.63895 12.8874 1.84146 13.0731 1.10193 13.4264C0.822594 13.5598 0.559791 13.7172 0.342377 13.9293C0.0863228 14.1797 -0.0666113 14.4641 0.028594 14.8179C0.0807362 15.0125 0.202012 15.1723 0.353084 15.3138C0.69061 15.6297 1.10775 15.8307 1.54676 15.9981C2.33215 16.2975 3.15595 16.4619 3.99488 16.5704C4.87123 16.6822 5.75649 16.7249 6.64085 16.698C7.98002 16.6597 9.29916 16.5066 10.5662 16.083C11.0008 15.9377 11.4163 15.756 11.7817 15.4908C11.9679 15.355 12.1339 15.2006 12.2417 15.0032C12.407 14.7 12.3753 14.4058 12.1749 14.1259C11.9966 13.8772 11.7463 13.6987 11.4726 13.5464C10.8527 13.2011 10.1707 13.0039 9.47072 12.8531C9.21466 12.7978 8.95442 12.7565 8.69534 12.7131C8.65996 12.7072 8.60386 12.7131 8.5843 12.7344C8.44394 12.8846 8.31102 13.0409 8.166 13.2073Z" fill="white"/>
</svg>
