<svg width="14" height="14" viewBox="0 0 14 14" fill="none" xmlns="http://www.w3.org/2000/svg">
<path d="M10.5799 13.1694C9.53836 13.0074 8.64954 12.6066 7.80569 12.0994C6.05252 11.0413 4.5738 9.66306 3.19692 8.16714C2.14211 7.02041 1.15806 5.81481 0.533104 4.37379C0.292382 3.81695 0.175989 3.20457 0.0258685 2.61136C-0.0118544 2.45939 -0.00826356 2.3001 0.0362704 2.14999C0.0808043 1.99987 0.164662 1.8644 0.279156 1.75759C0.827394 1.22059 1.37431 0.674999 1.97479 0.199507C2.43772 -0.164883 2.97009 -0.0101341 3.30406 0.491811C3.80997 1.25233 4.29604 2.02807 4.81981 2.77404C5.11542 3.19332 5.10153 3.58615 4.87536 4.00675C4.71929 4.29707 4.57049 4.59269 4.39061 4.86648C4.24512 5.08934 4.23983 5.24806 4.42037 5.46894C5.38804 6.65801 6.47597 7.74394 7.66681 8.70943C7.85397 8.86154 7.99218 8.85823 8.18661 8.73588C8.50273 8.53749 8.83273 8.35959 9.16538 8.18963C9.55886 7.99123 9.93251 8.00975 10.3115 8.2723C11.0713 8.80136 11.8504 9.29536 12.6188 9.80921C13.1141 10.1399 13.261 10.6789 12.8959 11.1405C12.428 11.7228 11.9211 12.2727 11.3788 12.7865C11.1765 12.9796 10.8498 13.0451 10.5799 13.1694Z" fill="white"/>
</svg>
