<svg width="24" height="25" viewBox="0 0 24 25" fill="none" xmlns="http://www.w3.org/2000/svg">
<path d="M10.5289 1.18525H8.35266C8.35266 1.03337 8.35525 0.88786 8.35266 0.742753C8.34886 0.559885 8.27911 0.384549 8.15627 0.249032C8.03342 0.113516 7.86575 0.0269448 7.68413 0.00526221C7.29805 -0.0387879 6.94664 0.197608 6.85536 0.568546C6.83864 0.646321 6.8299 0.725597 6.82924 0.805143C6.82506 0.927328 6.82825 1.04991 6.82825 1.18386C6.78639 1.18704 6.75171 1.19203 6.71683 1.19203C6.06584 1.19203 5.41466 1.19043 4.76347 1.19462C4.67218 1.19462 4.65085 1.16512 4.65364 1.08061C4.66056 0.944606 4.6583 0.808288 4.64687 0.672592C4.60541 0.264181 4.25998 -0.0176577 3.83643 0.00247384C3.45293 0.0208115 3.1378 0.353875 3.13342 0.746938C3.13162 0.916362 3.13023 1.08579 3.13441 1.25521C3.13601 1.32079 3.1109 1.3457 3.0499 1.36484C1.71644 1.78341 0.791784 2.64509 0.274345 3.94068C0.0812016 4.42403 0.000873566 4.9321 0.000673294 5.45153C-0.000123978 10.4479 -0.000123978 15.4442 0.000673294 20.4405C0.000673294 22.5031 1.40729 24.2368 3.41107 24.6407C3.70407 24.6991 4.00208 24.7286 4.30084 24.7288C9.28389 24.7339 14.2669 24.7351 19.25 24.7323C21.2157 24.7323 22.8868 23.4515 23.4005 21.5528C23.4913 21.2154 23.5371 20.8676 23.5366 20.5183C23.5374 16.1001 23.5374 11.6818 23.5366 7.26337C23.5366 6.67557 23.546 6.08737 23.5348 5.49977C23.4999 3.66183 22.644 2.34391 20.9915 1.54881C20.5452 1.33395 20.0628 1.2299 19.5671 1.20259C19.4726 1.19761 19.4411 1.1703 19.4457 1.07503C19.4521 0.94565 19.4497 0.815986 19.4383 0.686947C19.4019 0.279134 19.0706 -0.00589787 18.6498 0.00227432C18.2669 0.00944991 17.9458 0.321187 17.9245 0.712655C17.9173 0.845204 17.9185 0.978351 17.9201 1.1113C17.9201 1.1711 17.9002 1.19362 17.8394 1.19362C17.1685 1.19216 16.4974 1.19216 15.8262 1.19362C15.7644 1.19362 15.7465 1.16831 15.7465 1.10991C15.7493 0.993703 15.7495 0.877299 15.7465 0.761094C15.7353 0.313019 15.4041 -0.00430291 14.9564 0.00267336C14.545 0.00905166 14.2265 0.346702 14.2251 0.778632C14.2251 0.881482 14.2205 0.984731 14.2267 1.08738C14.2317 1.1701 14.203 1.19502 14.12 1.19462C13.5121 1.19143 12.9042 1.19302 12.2962 1.19302C12.0479 1.19302 12.0485 1.19302 12.0475 0.941477C12.0503 0.845248 12.0473 0.748941 12.0387 0.653058C11.9893 0.252621 11.6381 -0.0236364 11.2195 0.00347142C10.842 0.027988 10.5338 0.354674 10.5285 0.738369C10.5271 0.883076 10.5289 1.02878 10.5289 1.18525ZM11.7696 23.2029C9.27492 23.2029 6.78014 23.2024 4.2853 23.2013C4.126 23.2011 3.96695 23.1888 3.80952 23.1645C2.51392 22.9652 1.52509 21.8105 1.52489 20.4995C1.52409 16.2674 1.52409 12.0351 1.52489 7.80274C1.52489 7.67059 1.52489 7.67019 1.65345 7.67019H21.8846C22.0142 7.67019 22.0144 7.67019 22.0144 7.80174C22.0144 12.0339 22.0144 16.2661 22.0144 20.4985C22.0144 21.9763 20.7826 23.2029 19.3052 23.2031L11.7696 23.2029ZM19.4379 2.72262C19.5043 2.72601 19.547 2.7266 19.5892 2.73079C20.7535 2.84301 21.7766 3.78162 21.9612 4.94087C22.0174 5.29188 21.999 5.65524 22.0118 6.01303C22.0166 6.14717 22.0118 6.14737 21.8759 6.14737H1.53745C1.48423 5.36244 1.51752 4.608 1.97596 3.93649C2.26282 3.50829 2.66307 3.16828 3.13202 2.95443C3.13202 3.03057 3.13202 3.08638 3.13202 3.14219C3.13404 3.24628 3.15746 3.34883 3.20082 3.44347C3.24419 3.53811 3.30658 3.62281 3.3841 3.69229C3.46163 3.76177 3.55262 3.81455 3.65143 3.84734C3.75023 3.88013 3.85473 3.89222 3.95841 3.88287C4.35885 3.8448 4.64946 3.52628 4.65424 3.11927C4.65564 2.98752 4.65424 2.85576 4.65424 2.72062H6.82685C6.82685 2.86414 6.82466 2.99968 6.82685 3.13541C6.83483 3.52449 7.11986 3.83444 7.51013 3.88068C7.69033 3.90176 7.87205 3.85652 8.02134 3.75341C8.17062 3.65031 8.27727 3.49638 8.32137 3.32039C8.35107 3.20079 8.34409 3.07023 8.35047 2.94466C8.35426 2.87031 8.35047 2.79577 8.35047 2.71265H8.6062C9.21074 2.71265 9.81528 2.71405 10.42 2.71126C10.5012 2.71126 10.5338 2.73259 10.5281 2.8173C10.5215 2.91317 10.5265 3.00984 10.5267 3.10611C10.5267 3.54462 10.8526 3.88128 11.2777 3.88467C11.7104 3.88806 12.0403 3.55698 12.0461 3.11289C12.0475 3.00665 12.0485 2.90022 12.0461 2.79398C12.0445 2.73418 12.066 2.71026 12.1268 2.71186C12.243 2.71484 12.3594 2.71186 12.4756 2.71186C13.0204 2.71186 13.5651 2.71405 14.1101 2.70986C14.2036 2.70986 14.2329 2.73797 14.2259 2.82946C14.2189 2.92095 14.2239 3.01523 14.2243 3.10851C14.2267 3.54702 14.5502 3.88128 14.9775 3.88467C15.4049 3.88806 15.7349 3.55897 15.7459 3.12186C15.7485 3.01562 15.7499 2.90919 15.7459 2.80295C15.7429 2.73259 15.7694 2.71146 15.8382 2.71166C16.5026 2.71365 17.167 2.71365 17.8314 2.71166C17.8952 2.71166 17.9205 2.73159 17.9193 2.79717C17.9169 2.92314 17.9161 3.04971 17.9237 3.17588C17.9353 3.36358 18.0165 3.54022 18.1513 3.67128C18.2862 3.80235 18.4651 3.87843 18.653 3.88467C19.0564 3.89623 19.3971 3.6094 19.4348 3.21335C19.4503 3.05649 19.4379 2.89643 19.4379 2.72242V2.72262Z" fill="white"/>
<path d="M7.88921 11.3035C7.88921 10.9782 7.88762 10.6529 7.89041 10.3278C7.89041 10.2605 7.87366 10.2345 7.80171 10.2347C7.1478 10.2374 6.49396 10.2374 5.84018 10.2347C5.77201 10.2347 5.7471 10.2527 5.7475 10.3238C5.74962 10.9778 5.74962 11.6316 5.7475 12.2854C5.7475 12.3525 5.76484 12.3785 5.83659 12.3783C6.49063 12.3761 7.14448 12.3761 7.79812 12.3783C7.87785 12.3783 7.8912 12.3484 7.89061 12.2786C7.88762 11.9539 7.88921 11.6286 7.88921 11.3035Z" fill="white"/>
<path d="M5.74875 15.6288C5.74875 15.9541 5.75055 16.2792 5.74736 16.6045C5.74736 16.6759 5.7649 16.7032 5.84184 16.7028C6.49229 16.7 7.14268 16.7 7.793 16.7028C7.86515 16.7028 7.89126 16.685 7.89086 16.6085C7.88807 15.958 7.88807 15.3077 7.89086 14.6573C7.89086 14.5858 7.87432 14.5577 7.79698 14.5589C7.14666 14.5617 6.49628 14.5617 5.84582 14.5589C5.76191 14.5589 5.74616 14.5904 5.74776 14.6637C5.75055 14.9856 5.74875 15.3075 5.74875 15.6288Z" fill="white"/>
<path d="M6.81993 18.8852C6.49463 18.8852 6.16954 18.8872 5.84325 18.8838C5.7699 18.8838 5.74598 18.9038 5.74638 18.9791C5.74904 19.6294 5.74904 20.2799 5.74638 20.9305C5.74638 21.0036 5.76631 21.0279 5.84205 21.0275C6.49238 21.0249 7.14283 21.0249 7.79342 21.0275C7.86677 21.0275 7.89029 21.0076 7.88989 20.9322C7.88736 20.2818 7.88736 19.6313 7.88989 18.9809C7.88989 18.9075 7.86996 18.8828 7.79461 18.8838C7.47051 18.8874 7.14522 18.8852 6.81993 18.8852Z" fill="white"/>
<path d="M17.7805 12.3674V10.2434H15.6549V12.3674H17.7805Z" fill="white"/>
<path d="M15.6551 16.6961H17.7778V14.5675H15.6551V16.6961Z" fill="white"/>
<path d="M17.7805 21.0201V18.8926H15.6567V21.0201H17.7805Z" fill="white"/>
<path d="M12.8393 19.9504C12.8393 19.6283 12.8371 19.3062 12.841 18.9841C12.841 18.9044 12.8171 18.8833 12.739 18.8844C12.0948 18.8874 11.4503 18.8874 10.8056 18.8844C10.7236 18.8844 10.6975 18.9068 10.6979 18.9903C10.701 19.6345 10.701 20.279 10.6979 20.9237C10.6979 21.0082 10.725 21.0297 10.8062 21.0293C11.4504 21.0266 12.0948 21.0266 12.7396 21.0293C12.8183 21.0293 12.8418 21.0068 12.841 20.9283C12.8371 20.6014 12.8394 20.2759 12.8393 19.9504Z" fill="white"/>
<path d="M11.7748 12.3771C12.0937 12.3771 12.4126 12.3749 12.7315 12.3785C12.8097 12.3785 12.8421 12.3637 12.8415 12.276C12.8381 11.6284 12.8381 10.9808 12.8415 10.3334C12.8415 10.2517 12.8136 10.2338 12.7379 10.2338C12.0937 10.2364 11.4492 10.2364 10.8045 10.2338C10.72 10.2338 10.6982 10.2607 10.6986 10.3418C10.7014 10.986 10.7014 11.6305 10.6986 12.2752C10.6986 12.3617 10.7295 12.3797 10.8085 12.3789C11.1304 12.3749 11.4527 12.3771 11.7748 12.3771Z" fill="white"/>
<path d="M12.8307 14.568H10.7003V14.6824C10.7003 15.3166 10.7019 15.9509 10.6986 16.5849C10.6986 16.674 10.7185 16.7045 10.814 16.7045C11.4548 16.7003 12.0956 16.7017 12.7364 16.7031C12.8 16.7031 12.8415 16.7003 12.8411 16.6156C12.8379 15.9549 12.8393 15.2941 12.8389 14.6334C12.8375 14.6114 12.8348 14.5896 12.8307 14.568Z" fill="white"/>
</svg>
