<svg width="27" height="24" viewBox="0 0 27 24" fill="none" xmlns="http://www.w3.org/2000/svg">
<path d="M8.41719 0.0999939L10.6172 2.3C9.55052 4.16666 8.61719 6.03333 7.81719 7.89999C7.01719 9.7 6.55052 11.4667 6.41719 13.2L11.4172 14.3V24H0.617188V17C0.617188 12.8667 1.41719 9.53333 3.01719 6.99999C4.68385 4.4 6.48385 2.1 8.41719 0.0999939ZM23.4172 0.0999939L25.6172 2.3C24.5505 4.16666 23.6172 6.03333 22.8172 7.89999C22.0172 9.7 21.5505 11.4667 21.4172 13.2L26.4172 14.3V24H15.6172V17C15.6172 12.8667 16.4172 9.53333 18.0172 6.99999C19.6839 4.4 21.4839 2.1 23.4172 0.0999939Z" fill="white"/>
</svg>
