<svg width="41" height="31" viewBox="0 0 41 31" fill="none" xmlns="http://www.w3.org/2000/svg">
<path d="M22.3137 30.9778V29.0213C28.222 25.6602 31.8698 21.3985 33.2569 16.2359C31.7588 17.2 30.3955 17.683 29.1672 17.6849C27.12 17.6849 25.3922 16.8682 23.984 15.235C22.5759 13.6017 21.8708 11.6036 21.8689 9.2407C21.8413 8.01331 22.0743 6.79382 22.5527 5.66079C23.0312 4.52777 23.7447 3.50633 24.647 2.6623C25.5501 1.79108 26.6203 1.10699 27.7948 0.650239C28.9693 0.193489 30.2243 -0.0267105 31.4861 0.00258203C34.1896 0.00258203 36.4511 1.13018 38.2707 3.38536C40.0903 5.64054 41 8.44675 41 11.804C41 16.5299 39.17 20.768 35.5098 24.5185C31.8497 28.2689 27.451 30.422 22.3137 30.9778Z" fill="#FEEBDC"/>
<path d="M0.447775 30.9778V29.0211C6.36966 25.6598 10.0244 21.3977 11.4119 16.2347C9.90746 17.1988 8.52952 17.6819 7.27807 17.6838C5.25045 17.6838 3.53139 16.8671 2.12087 15.2337C0.710351 13.6003 0.00413426 11.602 0.00221779 9.23889C-0.0254745 8.01268 0.20643 6.79425 0.683099 5.66145C1.15977 4.52864 1.87072 3.50637 2.77056 2.65994C4.6142 0.88854 6.89096 0.00189288 9.60085 2.373e-06C12.3107 -0.00188813 14.5817 1.1258 16.4139 3.38306C18.2249 5.64032 19.1314 8.44677 19.1333 11.8024C19.1333 16.5287 17.305 20.7672 13.6484 24.5179C9.9918 28.2687 5.59157 30.422 0.447775 30.9778Z" fill="#FEEBDC"/>
</svg>
