<svg width="18" height="18" viewBox="0 0 18 18" fill="none" xmlns="http://www.w3.org/2000/svg">
<path d="M1.90735e-05 8.98812C-0.00232124 10.1692 0.228153 11.3392 0.678282 12.4313C1.12841 13.5235 1.78938 14.5163 2.62345 15.3531C4.30793 17.0431 6.59523 17.9953 8.98218 18C10.1641 18.0023 11.3349 17.772 12.4277 17.3222C13.5205 16.8723 14.514 16.2118 15.3513 15.3783C17.0425 13.6949 17.9953 11.4091 18 9.02374C18.0082 4.04057 13.9983 0.00445582 9.03565 2.58458e-06C4.02098 -0.00370845 0.00670242 3.98936 1.90735e-05 8.98812ZM13.047 12.8201C13.1829 11.6445 13.3166 10.4859 13.4502 9.33176H17.264C17.2191 10.8658 16.7345 12.3548 15.8677 13.6217L13.047 12.8201ZM2.12933 13.6187C1.27449 12.328 0.792479 10.9171 0.736776 9.33992H4.55126C4.68866 10.5275 4.8216 11.6764 4.95454 12.8194L2.12933 13.6187ZM13.041 5.1613L15.8633 4.36121C16.7116 5.60344 17.1967 7.0574 17.264 8.55986H13.448C13.3047 7.41093 13.1747 6.28723 13.041 5.1613ZM0.736032 8.5658C0.80262 7.06115 1.28938 5.60517 2.14121 4.36269L4.959 5.16056C4.82308 6.29985 4.6894 7.42355 4.55348 8.5658H0.736032ZM12.3251 12.7125L9.38695 12.4943V9.33027H12.7157C12.5835 10.4733 12.4558 11.5821 12.3251 12.7125ZM8.61157 9.32805V12.4973L5.67421 12.7125C5.5435 11.5829 5.41576 10.474 5.28356 9.33102L8.61157 9.32805ZM8.619 8.55615H5.28356C5.42021 7.43468 5.55167 6.35329 5.68387 5.26967L8.61826 5.48491L8.619 8.55615ZM12.2582 5.27486C12.5055 6.36739 12.6578 7.45398 12.6437 8.55318H9.38472V5.48045L12.2582 5.27486ZM12.0852 13.4273C11.7094 14.6497 11.2682 15.7511 10.3933 16.6232C10.117 16.8986 9.80583 17.1309 9.39957 17.2043V13.2231L12.0852 13.4273ZM8.62568 17.1791C7.53169 17.093 6.24386 14.9837 5.97575 13.4154L8.62568 13.2321V17.1791ZM9.38101 0.80975C10.6503 0.973035 11.8683 3.40005 12.0139 4.56457L9.38101 4.74641V0.80975ZM5.89777 4.55715C6.47187 2.98961 6.95833 1.48887 8.61306 0.738499V4.74641L5.89777 4.55715ZM11.1508 16.9483C11.9017 16.0116 12.3763 14.9488 12.7283 13.8206C12.7573 13.7301 12.894 13.5905 12.9511 13.6039C13.7518 13.7872 14.5472 13.9928 15.428 14.2147C14.2241 15.6323 12.8331 16.5104 11.1508 16.9483ZM5.18255 13.5215C5.57246 14.8107 6.05002 15.9604 6.91452 16.9691C5.45512 16.7034 3.40156 15.3896 2.63213 14.2184L5.18255 13.5215ZM12.816 4.45547C12.4223 3.17516 11.9485 2.01732 11.0335 0.967097C12.8256 1.45324 14.2167 2.34315 15.402 3.75111L12.816 4.45547ZM6.87441 1.03018C6.05002 2.02103 5.58063 3.18258 5.18626 4.45398L2.59871 3.74889C3.79445 2.34241 5.17809 1.44879 6.87144 1.03018H6.87441Z" fill="white"/>
</svg>
