<svg width="44" height="51" viewBox="0 0 44 51" fill="none" xmlns="http://www.w3.org/2000/svg">
<circle cx="22" cy="29" r="22" fill="#00BBFF"/>
<path d="M15.518 20.723C16.904 20.723 18.0847 21.3903 19.06 22.725C19.984 24.0597 20.446 25.6767 20.446 27.576C20.446 29.4753 19.7787 31.5543 18.444 33.813C17.058 36.0717 15.133 38.2277 12.669 40.281L10.359 39.126L10.128 38.125C11.3087 36.9957 12.2583 35.738 12.977 34.352C13.6443 33.0173 13.978 31.7597 13.978 30.579C13.978 29.4497 13.6187 28.3717 12.9 27.345C12.13 26.3697 11.1547 25.651 9.974 25.189L9.897 24.111C11.7963 21.8523 13.67 20.723 15.518 20.723ZM28.377 20.723C29.763 20.723 30.9437 21.3903 31.919 22.725C32.843 24.0597 33.305 25.6767 33.305 27.576C33.305 29.4753 32.6377 31.5543 31.303 33.813C29.917 36.0717 27.992 38.2277 25.528 40.281L23.218 39.126L22.987 38.125C24.1677 36.9957 25.1173 35.738 25.836 34.352C26.5033 33.0173 26.837 31.7597 26.837 30.579C26.837 29.4497 26.4777 28.3717 25.759 27.345C24.989 26.3697 24.0137 25.651 22.833 25.189L22.756 24.111C24.6553 21.8523 26.529 20.723 28.377 20.723Z" fill="white"/>
</svg>
