<svg version="1.2" xmlns="http://www.w3.org/2000/svg" viewBox="0 0 52 52" width="52" height="52">
	<title>Group 77-svg</title>
	<style>
		.s0 { fill: #1d2051 } 
		.s1 { fill: #ffffff } 
	</style>
	<path id="Layer" class="s0" d="m26 52c-14.4 0-26-11.6-26-26 0-14.4 11.6-26 26-26 14.4 0 26 11.6 26 26 0 14.4-11.6 26-26 26z"/>
	<path id="Layer" class="s1" d="m38 18.6q-2.4 2-3.8 4-1.3 1.9-1.3 3.6 0.2-0.1 0.7-0.1 0.4-0.1 0.8-0.1 1.6 0 2.6 1.3 1.1 1.3 1.1 3.1 0 2.3-1.5 3.8-1.5 1.5-3.8 1.5-2.4 0-3.8-1.7-1.4-1.8-1.4-4.7 0-3.6 2.2-7 2.1-3.5 6.2-6.6zm-14.2 0q-2.5 2-3.8 4-1.4 1.9-1.4 3.6 0.3-0.1 0.7-0.1 0.5-0.1 0.9-0.1 1.6 0 2.6 1.3 1.1 1.3 1.1 3.1 0 2.3-1.5 3.8-1.5 1.5-3.8 1.5-2.4 0-3.8-1.7-1.4-1.8-1.4-4.7 0-3.6 2.1-7 2.2-3.5 6.3-6.6z"/>
</svg>